<svg xmlns="http://www.w3.org/2000/svg" viewBox="0 0 197.93 200.3"><defs><style>.cls-1{fill:#fff;}</style></defs><g id="Layer_2" data-name="Layer 2"><g id="Layer_1-2" data-name="Layer 1"><g id="Build"><g id="Build-2" data-name="Build"><path class="cls-1" d="M60.29,140V185.3H15V140H60.29m9-15H6a6,6,0,0,0-6,6V194.3a6,6,0,0,0,6,6H69.29a6,6,0,0,0,6-6V131a6,6,0,0,0-6-6Z"/></g><g id="Build-3" data-name="Build"><path class="cls-1" d="M152.31,140V185.3H107V140h45.29m9-15H98a6,6,0,0,0-6,6V194.3a6,6,0,0,0,6,6h63.29a6,6,0,0,0,6-6V131a6,6,0,0,0-6-6Z"/></g><g id="Build-4" data-name="Build"><path class="cls-1" d="M60.29,48V93.28H15V48H60.29m9-15H6a6,6,0,0,0-6,6v63.29a6,6,0,0,0,6,6H69.29a6,6,0,0,0,6-6V39a6,6,0,0,0-6-6Z"/></g><g id="Build-5" data-name="Build"><path class="cls-1" d="M140.41,18.3l39.22,22.64L157,80.16,117.76,57.52,140.41,18.3M137.12,0a6,6,0,0,0-5.2,3L100.27,57.81a6,6,0,0,0,2.2,8.2l54.81,31.64a5.93,5.93,0,0,0,3,.81,6,6,0,0,0,5.21-3l31.64-54.81a6,6,0,0,0-2.2-8.2L140.11.8a6,6,0,0,0-3-.8Z"/></g></g></g></g></svg>