<svg xmlns="http://www.w3.org/2000/svg" viewBox="0 0 200 200"><defs><style>.cls-1{fill:#fff;}</style></defs><g id="Layer_2" data-name="Layer 2"><g id="Layer_1-2" data-name="Layer 1"><path class="cls-1" d="M114.43,100l83.18-83.18a8.15,8.15,0,0,0,0-11.54l-2.89-2.89a8.15,8.15,0,0,0-11.54,0L100,85.57,16.82,2.39a8.15,8.15,0,0,0-11.54,0L2.39,5.28a8.15,8.15,0,0,0,0,11.54L85.57,100,2.39,183.18a8.15,8.15,0,0,0,0,11.54l2.89,2.89a8.15,8.15,0,0,0,11.54,0L100,114.43l83.18,83.18a8.15,8.15,0,0,0,11.54,0l2.89-2.89a8.15,8.15,0,0,0,0-11.54Z"/></g></g></svg>