<svg xmlns="http://www.w3.org/2000/svg" viewBox="0 0 150 200"><defs><style>.cls-1{fill:#fff;}.cls-2{fill:none;stroke:#fff;stroke-miterlimit:10;stroke-width:15px;}</style></defs><g id="Layer_2" data-name="Layer 2"><g id="Layer_1-2" data-name="Layer 1"><path class="cls-1" d="M133.93,15a1.7,1.7,0,0,1,1.07.31V184.69a1.7,1.7,0,0,1-1.07.31H16.07a1.7,1.7,0,0,1-1.07-.31V66.52L69.81,15.36A1.75,1.75,0,0,1,70.94,15h63m0-15h-63A16.67,16.67,0,0,0,59.58,4.39L4.71,55.61A14.47,14.47,0,0,0,0,66.21V185c0,8.28,7.2,15,16.07,15H133.93c8.87,0,16.07-6.72,16.07-15V15c0-8.28-7.2-15-16.07-15Z"/><path class="cls-2" d="M68,8V53A15,15,0,0,1,53,68H8"/></g></g></svg>