<svg xmlns="http://www.w3.org/2000/svg" viewBox="0 0 200 200"><defs><style>.cls-1{fill:#fff;}.cls-2{fill:none;stroke:#fff;stroke-miterlimit:10;stroke-width:15px;}</style></defs><g id="Layer_2" data-name="Layer 2"><g id="Layer_1-2" data-name="Layer 1"><g id="Restore"><path class="cls-1" d="M142,58V185H15V58H142m0-15H15A15,15,0,0,0,0,58V185a15,15,0,0,0,15,15H142a15,15,0,0,0,15-15V58a15,15,0,0,0-15-15Z"/><path class="cls-2" d="M144,164.5h33.48c8.3,0,15-6.72,15-11v-127c0-12.3-6.72-19-15-19H50.5a15,15,0,0,0-15,15V57"/></g></g></g></svg>