<svg xmlns="http://www.w3.org/2000/svg" viewBox="0 0 180 200"><defs><style>.cls-1{fill:#fff;}</style></defs><g id="Layer_2" data-name="Layer 2"><g id="Layer_1-2" data-name="Layer 1"><g id="Save"><path class="cls-1" d="M124.76,15a.69.69,0,0,1,.43.13L164.87,54.8l.09.09,0,0v130a.66.66,0,0,1-.43.12H15.43a.66.66,0,0,1-.43-.12V15.12a.66.66,0,0,1,.43-.12H124.76m0-15H15.43A15.22,15.22,0,0,0,0,15V185a15.22,15.22,0,0,0,15.43,15H164.57A15.22,15.22,0,0,0,180,185V54.8a14.82,14.82,0,0,0-4.52-10.61L135.66,4.39A15.64,15.64,0,0,0,124.76,0Z"/><path class="cls-1" d="M110.25,16V46h-50V16h50m0-15h-50a15,15,0,0,0-15,15V46a15,15,0,0,0,15,15h50a15,15,0,0,0,15-15V16a15,15,0,0,0-15-15Z"/><path class="cls-1" d="M85.25,100a22.5,22.5,0,1,1-22.5,22.5A22.52,22.52,0,0,1,85.25,100m0-15a37.5,37.5,0,1,0,37.5,37.5A37.5,37.5,0,0,0,85.25,85Z"/></g></g></g></svg>