<svg xmlns="http://www.w3.org/2000/svg" viewBox="0 0 167 200"><defs><style>.cls-1{fill:#fff;}</style></defs><g id="Layer_2" data-name="Layer 2"><g id="Layer_1-2" data-name="Layer 1"><g id="SaveAs"><path class="cls-1" d="M124.26,14.77,152,42.54V135H123v15h32.51A11.37,11.37,0,0,0,167,138.75V41.1a11.13,11.13,0,0,0-3.37-8L134,3.29A11.59,11.59,0,0,0,125.87,0H44.49A11.37,11.37,0,0,0,33,11.25L33.25,62,47,62v-.12L46.77,15H124"/><path class="cls-1" d="M107,15V29H77V15h30m0-15H77A15,15,0,0,0,62,15V29A15,15,0,0,0,77,44h30a15,15,0,0,0,15-15V15A15,15,0,0,0,107,0Z"/><path class="cls-1" d="M91.48,65,119,92.72V185H15V65H91.48m1.39-15H11.49A11.37,11.37,0,0,0,0,61.25v127.5A11.37,11.37,0,0,0,11.49,200h111A11.37,11.37,0,0,0,134,188.75V91.1a11.13,11.13,0,0,0-3.37-8L101,53.29A11.59,11.59,0,0,0,92.87,50Z"/><path class="cls-1" d="M74,66V80H44V66H74m0-15H44A15,15,0,0,0,29,66V80A15,15,0,0,0,44,95H74A15,15,0,0,0,89,80V66A15,15,0,0,0,74,51Z"/><path class="cls-1" d="M63.5,129A13.5,13.5,0,1,1,50,142.5,13.52,13.52,0,0,1,63.5,129m0-15A28.5,28.5,0,1,0,92,142.5,28.5,28.5,0,0,0,63.5,114Z"/></g></g></g></svg>